<svg width="21" height="21" viewBox="0 0 21 21" fill="none" xmlns="http://www.w3.org/2000/svg">
    <path d="M16.625 7L13.125 10.5H15.75C15.75 13.3962 13.3962 15.75 10.5 15.75C9.61625 15.75 8.77625 15.5312 8.05 15.1375L6.7725 16.415C7.84875 17.0975 9.12625 17.5 10.5 17.5C14.3675 17.5 17.5 14.3675 17.5 10.5H20.125L16.625 7ZM5.25 10.5C5.25 7.60375 7.60375 5.25 10.5 5.25C11.3837 5.25 12.2237 5.46875 12.95 5.8625L14.2275 4.585C13.1512 3.9025 11.8737 3.5 10.5 3.5C6.6325 3.5 3.5 6.6325 3.5 10.5H0.875L4.375 14L7.875 10.5H5.25Z" fill="#3368F2"/>
</svg>
